<mxfile host="app.diagrams.net" modified="2024-04-12T11:06:30.919Z" agent="Mozilla/5.0 (Windows NT 10.0; Win64; x64) AppleWebKit/537.36 (KHTML, like Gecko) Chrome/123.0.0.0 Safari/537.36" etag="7kAr0qjYHxXZwvpl9WQY" version="24.2.3" type="github">
  <diagram name="Page-1" id="c1izABSjeiNeSj5CMqVZ">
    <mxGraphModel dx="1434" dy="780" grid="1" gridSize="10" guides="1" tooltips="1" connect="1" arrows="1" fold="1" page="1" pageScale="1" pageWidth="850" pageHeight="1100" math="0" shadow="0">
      <root>
        <mxCell id="0" />
        <mxCell id="1" parent="0" />
        <mxCell id="IYURsE21rJsMNEVR1P1r-3" style="edgeStyle=orthogonalEdgeStyle;rounded=0;orthogonalLoop=1;jettySize=auto;html=1;exitX=0.5;exitY=1;exitDx=0;exitDy=0;entryX=0.5;entryY=0;entryDx=0;entryDy=0;" edge="1" parent="1" source="IYURsE21rJsMNEVR1P1r-1" target="IYURsE21rJsMNEVR1P1r-2">
          <mxGeometry relative="1" as="geometry" />
        </mxCell>
        <mxCell id="IYURsE21rJsMNEVR1P1r-1" value="start" style="rounded=1;whiteSpace=wrap;html=1;" vertex="1" parent="1">
          <mxGeometry x="365" y="100" width="120" height="60" as="geometry" />
        </mxCell>
        <mxCell id="IYURsE21rJsMNEVR1P1r-5" style="edgeStyle=orthogonalEdgeStyle;rounded=0;orthogonalLoop=1;jettySize=auto;html=1;entryX=0.5;entryY=0;entryDx=0;entryDy=0;" edge="1" parent="1" source="IYURsE21rJsMNEVR1P1r-2" target="IYURsE21rJsMNEVR1P1r-4">
          <mxGeometry relative="1" as="geometry">
            <mxPoint x="425" y="320" as="targetPoint" />
          </mxGeometry>
        </mxCell>
        <mxCell id="IYURsE21rJsMNEVR1P1r-2" value="input degrees in farenheit" style="shape=parallelogram;perimeter=parallelogramPerimeter;whiteSpace=wrap;html=1;fixedSize=1;" vertex="1" parent="1">
          <mxGeometry x="365" y="230" width="120" height="70" as="geometry" />
        </mxCell>
        <mxCell id="IYURsE21rJsMNEVR1P1r-7" style="edgeStyle=orthogonalEdgeStyle;rounded=0;orthogonalLoop=1;jettySize=auto;html=1;entryX=0.5;entryY=0;entryDx=0;entryDy=0;" edge="1" parent="1" source="IYURsE21rJsMNEVR1P1r-4" target="IYURsE21rJsMNEVR1P1r-6">
          <mxGeometry relative="1" as="geometry" />
        </mxCell>
        <mxCell id="IYURsE21rJsMNEVR1P1r-4" value="c = (f-32)/(9.0/5.0)" style="rounded=0;whiteSpace=wrap;html=1;" vertex="1" parent="1">
          <mxGeometry x="365" y="340" width="120" height="60" as="geometry" />
        </mxCell>
        <mxCell id="IYURsE21rJsMNEVR1P1r-10" style="edgeStyle=orthogonalEdgeStyle;rounded=0;orthogonalLoop=1;jettySize=auto;html=1;entryX=0.5;entryY=0;entryDx=0;entryDy=0;" edge="1" parent="1" source="IYURsE21rJsMNEVR1P1r-6" target="IYURsE21rJsMNEVR1P1r-9">
          <mxGeometry relative="1" as="geometry" />
        </mxCell>
        <mxCell id="IYURsE21rJsMNEVR1P1r-6" value="Print c" style="shape=parallelogram;perimeter=parallelogramPerimeter;whiteSpace=wrap;html=1;fixedSize=1;" vertex="1" parent="1">
          <mxGeometry x="365" y="450" width="120" height="60" as="geometry" />
        </mxCell>
        <mxCell id="IYURsE21rJsMNEVR1P1r-9" value="stop" style="rounded=1;whiteSpace=wrap;html=1;" vertex="1" parent="1">
          <mxGeometry x="365" y="550" width="120" height="60" as="geometry" />
        </mxCell>
      </root>
    </mxGraphModel>
  </diagram>
</mxfile>
